HIERARCHY
ROOT pelvis
{
  OFFSET 0 100 0
  CHANNELS 6 Xposition Yposition Zposition Zrotation Xrotation Yrotation
  JOINT pelvis_right_femur
  {
    OFFSET -10.78128 -3.44521 -0.5502486
    CHANNELS 3 Zrotation Xrotation Yrotation
    JOINT right_femur_tibia
    {
      OFFSET -0.8047443 -44.0398 -0.1307829
      CHANNELS 3 Zrotation Xrotation Yrotation
      JOINT right_tibia_foot
      {
        OFFSET 3.006224 -47.83518 -5
        CHANNELS 3 Zrotation Xrotation Yrotation
        End Site
        {
          OFFSET 0 -5 15
        }
      }
    }
  }
  JOINT pelvis_left_femur
  {
    OFFSET 10.78128 -3.44521 -0.5502486
    CHANNELS 3 Zrotation Xrotation Yrotation
    JOINT left_femur_tibia
    {
      OFFSET 0.8047443 -44.0398 -0.1307829
      CHANNELS 3 Zrotation Xrotation Yrotation
      JOINT left_tibia_foot
      {
        OFFSET -4.370144 -48.10324 -4.275266
        CHANNELS 3 Zrotation Xrotation Yrotation
        End Site
        {
          OFFSET 0 -5 15
        }
      }
    }
  }
  JOINT pelvis_spine1
  {
    OFFSET 0 6.468898 -3.129235
    CHANNELS 3 Zrotation Xrotation Yrotation
    JOINT spine1
    {
      OFFSET 0 23.15396 4.99043
      CHANNELS 3 Zrotation Xrotation Yrotation
      JOINT spine2
      {
        OFFSET 0 20.79997 -5.064912
        CHANNELS 3 Zrotation Xrotation Yrotation
        JOINT neck
        {
          OFFSET 0 14.38658 9.616178
          CHANNELS 3 Zrotation Xrotation Yrotation
          End Site
          {
            OFFSET 0 20 0
          }
        }
      }
      JOINT right_manubrium
      {
        OFFSET -5.722621 16.35077 3.967754
        CHANNELS 3 Zrotation Xrotation Yrotation
        JOINT right_clavicle
        {
          OFFSET -13.16364 1.694482 -4.693211
          CHANNELS 3 Zrotation Xrotation Yrotation
          JOINT right_humerus
          {
            OFFSET -28.5034 -0.3100689 -2.792744
            CHANNELS 3 Zrotation Xrotation Yrotation
            JOINT right_radius
            {
              OFFSET -25.15693 0.02248979 -1.271978
              CHANNELS 3 Zrotation Xrotation Yrotation
              End Site
              {
                OFFSET -15 0 0
              }
            }
          }
        }
      }
      JOINT left_manubrium
      {
        OFFSET 5.722621 16.35077 3.967754
        CHANNELS 3 Zrotation Xrotation Yrotation
        JOINT left_clavicle
        {
          OFFSET 13.16364 1.694482 -4.693211
          CHANNELS 3 Zrotation Xrotation Yrotation
          JOINT left_humerus
          {
            OFFSET 29.39168 -1.063119 -2.237045
            CHANNELS 3 Zrotation Xrotation Yrotation
            JOINT left_radius
            {
              OFFSET 24.59957 -0.9528479 0.9047498
              CHANNELS 3 Zrotation Xrotation Yrotation
              End Site
              {
                OFFSET 15 -0 -0
              }
            }
          }
        }
      }
    }
  }
}
MOTION
Frames: 23
Frame Time: 0.0416666666667
0 103.5113 0 2.34812 -3.093105 0.280972 1.012977 -10.70202 6.429948 -0 37.88168 -0 -5.661052 -16.26423 -5.132459 -7.168901 13.18086 -23.12401 -0 4.260006 -0 -0.5827963 -20.73252 22.40463 -4.734903 -3.653221 3.494301 1.880974 7.819712 -7.802146 0.5580699 24.22498 7.127769 3.480323 -21.34738 7.632738 6.329136 -18.639 11.02983 87.08742 35.67753 -22.05359 -0 0 14.3756 -9.569149 8.343821 5.470231 3.777969 -18.99002 -3.810825 -98.22226 41.23057 26.08419 0 0 -21.05891 -12.14593 16.7107 27.80599
0.113397 103.42 1.485571 1.925753 -2.67367 0.4053612 1.624022 -12.47444 6.552548 -0 37.68214 -0 -5.702952 -15.5713 -5.064324 -6.891308 13.32315 -23.01915 -0 4.72617 -0 -0.7825063 -20.86225 22.02608 -4.391387 -3.349169 3.371253 2.002881 7.79065 -7.881437 0.5886811 23.94144 7.268396 3.545347 -21.76877 7.822479 6.364221 -18.59373 11.05803 86.98594 35.6669 -21.95334 -0 0 14.5146 -9.405601 8.449756 5.491322 3.883297 -18.97599 -3.662733 -98.17145 40.74205 26.07905 0 0 -20.8207 -11.57905 16.57293 27.33122
0.2434419 103.4097 3.26745 0.924272 -1.585681 0.5363684 3.057537 -16.88815 6.730404 -0 36.64645 -0 -5.797626 -13.53653 -4.79999 -6.256203 13.53468 -22.51725 -0 5.972481 -0 -1.251083 -21.17312 20.93858 -3.593521 -2.602715 3.096704 2.295824 7.767893 -8.098339 0.634947 23.1961 7.645857 3.74577 -22.81889 8.256208 6.438153 -18.4592 11.14781 86.80689 35.73999 -21.78138 -0 0 14.70646 -9.268024 8.851715 5.674819 4.189346 -19.0778 -3.32523 -97.67716 39.2921 25.72744 0 0 -20.52276 -9.934548 16.16848 25.85724
0.3075144 103.3068 5.225081 0.3641992 -1.354471 0.6253008 4.105773 -19.21704 7.042485 -0 34.32168 -0 -5.927638 -13.66701 -5.119105 -5.689249 14.7189 -22.76208 -0 7.369386 -0 -2.244966 -21.87239 20.45891 -3.10259 -2.133865 2.789647 2.480448 7.249618 -8.029231 0.9673715 23.17212 7.479872 3.670071 -22.97321 8.532282 6.048774 -18.03443 10.87156 86.76143 34.7115 -21.64817 -0 0 14.67859 -8.23444 8.292266 5.071226 4.424123 -18.74849 -3.029463 -98.11902 39.65992 25.54082 0 0 -19.94932 -10.11274 16.26815 26.06423
0.3187595 103.1514 7.290384 0.05708346 -1.297346 0.6464609 4.75124 -20.41174 7.290228 -0 32.65424 -0 -6.036924 -13.98851 -5.373398 -5.337024 15.56826 -23.04565 -0 8.418038 -0 -2.880854 -22.32096 20.27855 -2.826927 -1.878121 2.601648 2.589513 6.860301 -7.934211 1.229743 23.24034 7.295972 3.590205 -22.98918 8.699711 5.740273 -17.72449 10.65024 86.74353 33.91284 -21.53822 -0 0 14.62793 -7.426032 7.773336 4.575116 4.574666 -18.46905 -2.821748 -98.52156 40.0322 25.44378 0 0 -19.45683 -10.32261 16.43415 26.24671
0.3662652 103.0405 9.563652 -0.3263369 -0.5671004 0.7340628 5.232532 -22.55425 7.154159 -0 31.84723 -0 -6.062111 -12.34486 -4.981141 -5.188175 15.23402 -22.40644 -0 8.85792 -0 -2.818531 -22.31746 19.58423 -2.555824 -1.58179 2.563593 2.719669 7.043477 -8.126542 1.117562 22.72672 7.621765 3.792832 -23.63998 8.843056 5.895642 -17.73565 10.80932 86.73911 34.44312 -21.60829 -0 0 14.5453 -7.907767 8.347365 4.993136 4.765612 -18.81006 -2.716605 -97.65435 38.75198 24.87045 0 0 -19.84454 -8.942694 16.11035 24.88541
0.5322748 102.9461 12.3604 -0.9231138 0.9438171 1.07382 5.623288 -26.83655 6.215357 -0 30.19238 -0 -6.024218 -7.970077 -3.96452 -5.054174 13.97785 -20.25226 -0 9.024501 -0 -2.56639 -22.20505 17.68175 -2.165974 -0.9848777 2.551047 2.897649 7.714533 -8.642828 0.6911544 21.536 8.466462 4.294137 -24.88079 8.991922 6.296229 -17.82273 11.27516 86.94007 35.98484 -21.95852 -0 0 14.0861 -10.10146 10.16516 6.525739 5.178921 -19.95699 -2.729329 -94.92598 35.41046 23.01875 0 0 -21.6134 -5.679926 14.98189 21.62095
0.7871288 102.5459 16.02926 -1.310351 2.234602 1.703851 5.304899 -31.84372 4.123526 -0 24.98085 -0 -5.846379 -2.982952 -3.195879 -4.848239 13.34434 -16.96626 -0 9.158403 -0 -2.910048 -22.63708 14.89977 -1.936824 -0.2078191 2.410953 3.00915 8.229636 -9.171746 0.3669239 20.45019 9.146389 4.674405 -25.52527 9.013235 6.159766 -17.3841 11.51663 87.70232 36.86756 -22.67251 -0 0 12.67357 -13.29216 12.16303 8.425995 5.907578 -21.52049 -2.884315 -90.82652 31.40233 19.1478 0 0 -24.72428 -2.041583 13.38945 17.63223
1.037389 101.5322 20.66085 -1.090803 2.854763 2.491224 3.846628 -35.38115 1.201791 -0 16.07633 -0 -5.50263 0.3095777 -3.153582 -4.797039 14.16043 -13.69172 -0 8.991513 -0 -3.695976 -23.5298 12.33526 -2.185617 0.2426592 2.204729 3.015643 8.267256 -9.569708 0.2711285 19.98099 9.301478 4.723524 -25.12091 8.794502 5.396057 -16.34677 11.32195 89.06022 36.83501 -23.92319 -0 0 10.30173 -16.30492 13.56904 9.897447 6.802066 -23.08793 -3.104405 -86.55401 28.10486 13.92452 0 0 -28.61388 0.64822 12.0219 14.17322
1.24574 99.83277 26.19494 -0.3248253 2.945162 3.348653 1.522741 -36.58141 -1.846008 -0 6.316846 -0 -4.968464 1.791598 -3.722555 -5.029987 15.88441 -10.80902 -0 8.08565 -0 -4.191156 -24.10025 10.59386 -2.851908 0.1339846 2.019946 2.916884 8.132132 -9.909267 0.2514912 19.95627 9.095557 4.50936 -23.98145 8.392216 4.440363 -15.06442 10.91007 90.78451 36.58171 -25.55693 -0 0 7.437927 -19.05566 14.61724 11.05264 7.640544 -24.54737 -3.365527 -82.53877 25.18117 8.25236 0 0 -32.58665 2.724371 10.87845 11.08061
1.390866 97.57029 32.57975 0.7153746 2.148965 4.170477 -0.6023218 -34.87392 -3.633367 0 -1.054039 0 -4.08571 0.8942283 -5.168536 -5.374298 18.74677 -8.612359 -0 7.251903 -0 -4.14357 -23.27373 10.12664 -3.537391 -0.5737814 1.735707 2.692038 7.957848 -10.07691 0.4144069 20.36949 8.413852 3.847608 -22.00155 7.994986 3.363235 -13.59875 10.31756 92.56329 35.56351 -26.99133 -0 0 4.492015 -21.02788 15.22659 11.61036 8.196961 -25.43704 -3.606561 -79.09871 22.26166 2.488871 0 0 -35.36845 4.73189 9.813141 7.871287
1.48317 95.74346 39.60269 0.389546 1.151195 4.659745 0.7269877 -31.19538 -1.272134 -0 0.6426954 -0 -3.917419 -1.831416 -6.547412 -4.787643 21.79762 -9.003169 -0 11.84482 -0 -5.043229 -19.103 10.60267 -2.696007 -1.517881 1.265762 2.677339 7.80609 -9.885434 0.7749012 20.69853 7.655602 3.116003 -20.92697 8.037973 3.12212 -12.68045 9.964202 93.04217 34.04379 -27.15164 -0 0 3.320894 -19.76574 14.92001 10.68953 7.740752 -24.54366 -3.390371 -78.85564 21.70723 1.182876 0 0 -33.61099 5.501216 9.373773 6.943997
1.615961 95.61529 46.77345 -1.843539 1.309834 4.620664 5.433017 -27.6711 3.586985 -0 11.46845 -0 -5.069072 -2.084443 -5.790563 -3.175223 20.20136 -11.10405 -0 26.26225 -0 -7.87489 -12.44856 10.30648 -0.1506009 -1.616477 1.347914 3.060966 8.267421 -9.449535 0.784075 20.12184 7.864572 3.359897 -22.66007 8.298502 4.813661 -13.25835 10.67584 91.41648 34.31515 -25.95658 -0 0 4.986636 -16.54592 14.63661 9.588056 6.079088 -22.52968 -2.777425 -82.8224 24.01613 7.663059 0 0 -28.3207 4.032685 9.399635 10.22224
1.865201 96.73359 53.75176 -2.75858 0.8938494 4.186862 8.053088 -22.94782 5.85106 -0 18.3438 -0 -5.634087 -0.7570468 -4.296742 -2.628673 14.03361 -11.22822 -0 43.5111 -0 -9.918102 -7.700576 10.0679 1.1513 -0.9342337 2.46947 3.149709 9.279829 -8.790881 0.6528855 19.81765 8.155701 3.988969 -23.88345 8.053942 6.527318 -14.1325 11.79549 89.53695 35.22853 -24.52393 -0 0 6.668783 -15.58625 15.09396 9.371708 4.644953 -21.47355 -2.64969 -86.57135 25.35071 13.89814 0 0 -25.11157 2.220791 9.206566 13.45586
2.1342 98.21034 60.43185 -1.934568 -0.9544937 3.491019 7.922764 -16.86126 5.754525 -0 18.68203 -0 -4.961826 -0.9092396 -3.766107 -2.774077 7.103141 -9.777985 -0 55.70705 -0 -10.37787 -5.726581 10.85879 0.9018941 -0.1585064 3.929251 2.730703 10.18945 -7.899967 0.7890723 20.35786 7.799156 4.146698 -23.00504 7.480322 6.893153 -14.66328 12.45294 88.19537 34.76721 -22.85953 -0 0 7.679678 -16.74677 15.54908 9.532313 4.020593 -21.15484 -3.02167 -87.97844 25.35069 16.02663 0 0 -23.92481 1.135795 8.93806 14.62165
2.324304 99.6024 66.76429 -0.7289901 -3.343262 2.739746 6.947561 -10.35079 5.127254 -0 16.6849 -0 -3.712007 -2.880288 -3.900319 -2.686552 0.5227056 -8.039087 -0 61.33745 -0 -10.12191 -5.203292 12.34665 0.2454728 0.5363216 5.208129 2.062867 10.71357 -6.874568 1.12696 21.25606 7.084338 3.885906 -21.13239 6.980952 6.291631 -15.19867 12.65348 86.92728 33.12499 -20.53737 -0 0 8.98744 -18.53244 15.59227 9.847126 3.859358 -20.77047 -3.445663 -88.39859 24.97483 16.33526 0 0 -22.8587 0.4418931 8.695208 14.7906
2.470651 100.7066 72.77065 0.142742 -5.160259 1.9812 6.024949 -4.144768 4.51317 -0 14.25917 -0 -2.632702 -5.721855 -3.839102 -2.136885 -6.047383 -6.437988 -0 61.4175 -0 -9.587262 -5.161387 13.93764 -0.2864201 1.092053 6.255296 1.408092 10.92437 -5.918741 1.380288 21.98853 6.487648 3.561808 -19.52563 6.640739 5.456295 -16.06318 12.69526 85.46001 31.61783 -17.73517 -0 0 10.92366 -20.36399 15.38716 10.50968 3.878312 -20.23917 -3.672029 -88.85934 24.54299 16.88257 0 0 -21.56254 -0.05545603 8.455349 14.76952
2.650904 101.3551 78.54842 0.5734558 -6.087612 1.178615 5.329785 1.38359 3.984827 -0 11.85134 -0 -1.817009 -8.720984 -3.36428 -1.173435 -12.46495 -4.986239 -0 57.03204 -0 -8.902058 -5.285167 15.39385 -0.5832585 1.448277 7.098223 0.8547357 10.95062 -5.138004 1.45092 22.3662 6.170843 3.309892 -18.54595 6.436216 4.668913 -17.29249 12.69942 83.79326 30.63524 -14.74103 -0 0 13.41182 -22.19707 15.11151 11.56621 3.996977 -19.66662 -3.691176 -89.53749 24.04478 18.12961 0 0 -20.20209 -0.4103731 8.166692 14.78862
2.930196 101.4454 84.2312 0.6288919 -6.217539 0.3215971 4.865509 6.063459 3.608265 -0 9.851601 -0 -1.064252 -11.4707 -2.587839 0.07730107 -18.32714 -3.654383 -0 49.36375 -0 -8.160824 -5.486854 16.65249 -0.6392465 1.57684 7.762342 0.4066179 10.87486 -4.546486 1.377638 22.36937 6.113075 3.130495 -18.14305 6.362555 3.975343 -18.78454 12.67712 82.02122 29.99763 -11.76992 -0 0 16.31769 -24.0209 14.84895 12.89922 4.177315 -19.07924 -3.55148 -90.38875 23.46393 19.98172 0 0 -18.87077 -0.6975929 7.774463 14.94742
3.344742 100.9732 89.96338 0.4376734 -5.785762 -0.5594302 4.563373 9.827317 3.4641 -0 8.774466 -0 -0.1837596 -13.70049 -1.724452 1.379003 -23.15403 -2.52444 -0 39.92951 -0 -7.444664 -5.752557 17.69647 -0.5186944 1.48126 8.268975 0.04535473 10.71658 -4.111866 1.260831 22.07361 6.210899 2.977334 -18.14584 6.432869 3.350577 -20.33478 12.58885 80.3279 29.41654 -9.030084 -0 0 19.40319 -25.69519 14.60425 14.27447 4.369962 -18.43177 -3.290614 -91.32443 22.8553 22.16027 0 0 -17.54183 -0.9781171 7.268137 15.27442
3.899972 100.0414 95.88702 0.1831346 -5.111004 -1.405182 4.27798 12.74216 3.603951 -0 9.123271 -0 0.9017892 -15.18409 -1.020582 2.36886 -26.52645 -1.802821 -0 30.59537 -0 -6.805783 -6.096122 18.52514 -0.369302 1.19351 8.646346 -0.2547173 10.45983 -3.77358 1.218341 21.63228 6.321588 2.798911 -18.33047 6.646313 2.762997 -21.66346 12.37929 78.958 28.68183 -6.735237 -0 0 22.28999 -26.99327 14.34788 15.40745 4.511269 -17.65937 -2.93959 -92.22712 22.33311 24.28496 0 0 -16.11916 -1.276916 6.697588 15.71889
4.579639 98.85127 102.1297 0.06423387 -4.541304 -2.144873 3.819532 14.97971 4.011006 -0 11.27009 -0 2.131424 -15.70192 -0.6970742 2.659345 -28.19378 -1.722611 -0 23.21233 -0 -6.267644 -6.535395 19.13841 -0.3848225 0.7708245 8.921646 -0.5217741 10.09601 -3.465336 1.339324 21.23676 6.315193 2.567363 -18.46759 6.967796 2.212276 -22.4909 12.01585 78.13836 27.73671 -5.062701 -0 0 24.5251 -27.72547 14.05415 16.06664 4.538531 -16.73441 -2.542847 -92.96143 22.02842 25.96134 0 0 -14.51642 -1.588399 6.157942 16.17941
5.361428 97.67865 108.7842 0.2223022 -4.356779 -2.702471 3.033792 16.67957 4.589027 -0 15.43555 -0 3.339921 -15.02047 -0.8804215 2.032692 -28.11876 -2.371904 -0 19.03889 -0 -5.828441 -7.070484 19.51755 -0.7169118 0.2844694 9.101581 -0.7807815 9.671874 -3.151529 1.641348 21.04005 6.136891 2.299774 -18.39711 7.33179 1.753885 -22.64863 11.52746 77.99321 26.68773 -4.11429 -0 0 25.73072 -27.87647 13.73109 16.18255 4.41102 -15.7165 -2.17603 -93.39955 22.01774 26.90838 0 0 -12.74635 -1.888334 5.745158 16.56099
